<svg width="26" height="26" viewBox="0 0 26 26" fill="none" xmlns="http://www.w3.org/2000/svg">
<g opacity="0.2" filter="url(#filter0_d)">
<path d="M21.6932 16.0568L18.2159 12.5795C19.2386 11.25 19.75 9.61364 19.75 7.875C19.75 3.47727 16.2727 0 11.875 0C7.47727 0 4 3.47727 4 7.875C4 12.2727 7.47727 15.75 11.875 15.75C13.6136 15.75 15.25 15.1364 16.5795 14.2159L20.0568 17.6932C20.2614 17.8977 20.4659 18 20.875 18C21.4886 18 22 17.4886 22 16.875C22 16.6705 21.8977 16.3636 21.6932 16.0568ZM6.25 7.875C6.25 4.80682 8.80682 2.25 11.875 2.25C14.9432 2.25 17.5 4.80682 17.5 7.875C17.5 10.9432 14.9432 13.5 11.875 13.5C8.80682 13.5 6.25 10.9432 6.25 7.875Z" fill="black"/>
<path d="M17.8196 12.2747L17.5519 12.6227L17.8624 12.9331L21.3025 16.3733C21.3709 16.4815 21.4207 16.5851 21.4534 16.6751C21.4916 16.7802 21.5 16.8484 21.5 16.875C21.5 17.2125 21.2125 17.5 20.875 17.5C20.7109 17.5 20.6254 17.4793 20.5749 17.4591C20.5284 17.4405 20.4812 17.4105 20.4104 17.3396L16.9331 13.8624L16.638 13.5673L16.2949 13.8048C15.0348 14.6772 13.4959 15.25 11.875 15.25C7.75341 15.25 4.5 11.9966 4.5 7.875C4.5 3.75341 7.75341 0.5 11.875 0.5C15.9966 0.5 19.25 3.75341 19.25 7.875C19.25 9.51475 18.7685 11.0412 17.8196 12.2747ZM11.875 1.75C8.53068 1.75 5.75 4.53068 5.75 7.875C5.75 11.2193 8.53068 14 11.875 14C15.2193 14 18 11.2193 18 7.875C18 4.53068 15.2193 1.75 11.875 1.75Z" stroke="black"/>
</g>
<defs>
<filter id="filter0_d" x="0" y="0" width="26" height="26" filterUnits="userSpaceOnUse" color-interpolation-filters="sRGB">
<feFlood flood-opacity="0" result="BackgroundImageFix"/>
<feColorMatrix in="SourceAlpha" type="matrix" values="0 0 0 0 0 0 0 0 0 0 0 0 0 0 0 0 0 0 127 0"/>
<feOffset dy="4"/>
<feGaussianBlur stdDeviation="2"/>
<feColorMatrix type="matrix" values="0 0 0 0 0 0 0 0 0 0 0 0 0 0 0 0 0 0 0.25 0"/>
<feBlend mode="normal" in2="BackgroundImageFix" result="effect1_dropShadow"/>
<feBlend mode="normal" in="SourceGraphic" in2="effect1_dropShadow" result="shape"/>
</filter>
</defs>
</svg>
